<svg width="81" height="80" viewBox="0 0 81 80" fill="none" xmlns="http://www.w3.org/2000/svg">
<path fill-rule="evenodd" clip-rule="evenodd" d="M56.1642 5.99976V13.9998C56.1642 15.1043 55.2688 15.9998 54.1642 15.9998H26.1642C25.0596 15.9998 24.1642 15.1043 24.1642 13.9998V5.99976C24.1642 4.89519 25.0596 3.99976 26.1642 3.99976H54.1642C55.2688 3.99976 56.1642 4.89519 56.1642 5.99976Z" stroke="url(#paint0_linear_203_25)" stroke-width="5" stroke-linecap="round" stroke-linejoin="round"/>
<path d="M56.1642 7.99976H68.0319C72.4501 7.99976 76.0319 11.5815 76.0319 15.9998V67.9997C76.0319 72.418 72.4501 75.9997 68.0319 75.9997H12.1642C7.74591 75.9997 4.16418 72.418 4.16418 67.9997V15.9998C4.16418 11.5815 7.74591 7.99976 12.1642 7.99976H24.1642" stroke="url(#paint1_linear_203_25)" stroke-width="5" stroke-linecap="round" stroke-linejoin="round"/>
<path d="M28.1616 36H52.1616" stroke="url(#paint2_linear_203_25)" stroke-width="5" stroke-linecap="round" stroke-linejoin="round"/>
<path d="M28.1616 51.9995H40.1616" stroke="url(#paint3_linear_203_25)" stroke-width="5" stroke-linecap="round" stroke-linejoin="round"/>
<defs>
<linearGradient id="paint0_linear_203_25" x1="56.1642" y1="9.99976" x2="24.1642" y2="9.99976" gradientUnits="userSpaceOnUse">
<stop stop-color="#13ADC7"/>
<stop offset="0.666667" stop-color="#6978D1"/>
<stop offset="1" stop-color="#945DD6"/>
</linearGradient>
<linearGradient id="paint1_linear_203_25" x1="76.0319" y1="41.9998" x2="4.16418" y2="41.9998" gradientUnits="userSpaceOnUse">
<stop stop-color="#13ADC7"/>
<stop offset="0.666667" stop-color="#6978D1"/>
<stop offset="1" stop-color="#945DD6"/>
</linearGradient>
<linearGradient id="paint2_linear_203_25" x1="52.1616" y1="36.5" x2="28.1616" y2="36.5" gradientUnits="userSpaceOnUse">
<stop stop-color="#13ADC7"/>
<stop offset="0.666667" stop-color="#6978D1"/>
<stop offset="1" stop-color="#945DD6"/>
</linearGradient>
<linearGradient id="paint3_linear_203_25" x1="40.1616" y1="52.4995" x2="28.1616" y2="52.4995" gradientUnits="userSpaceOnUse">
<stop stop-color="#13ADC7"/>
<stop offset="0.666667" stop-color="#6978D1"/>
<stop offset="1" stop-color="#945DD6"/>
</linearGradient>
</defs>
</svg>
