<svg width="81" height="80" viewBox="0 0 81 80" fill="none" xmlns="http://www.w3.org/2000/svg">
<g clip-path="url(#clip0_118_162)">
<path d="M7.08331 41.85H3.33331V31.85H7.08331H9.58331V29.35V28.85C9.58331 27.8554 9.9784 26.9016 10.6817 26.1983C11.3849 25.495 12.3388 25.1 13.3333 25.1H33.0831C33.0832 25.1 33.0832 25.1 33.0833 25.1C34.1898 25.1 35.2858 24.8866 36.3113 24.4714L67.1494 12.3261L67.1826 12.313L67.2154 12.299C67.7802 12.0577 68.3958 11.9589 69.0078 12.0112C69.4206 12.0465 69.8233 12.1498 70.1999 12.3157L67.6587 13.3272L36.7688 25.6232C36.7672 25.6239 36.7656 25.6245 36.7639 25.6251C36.2983 25.8078 35.818 25.9505 35.3281 26.0515L33.3333 26.4631V28.5V45V46.8476L35.0996 47.3899C35.5978 47.5428 36.0816 47.739 36.5457 47.9761L36.6499 48.0294L36.7587 48.0727L67.6587 60.3727L70.2249 61.3942C69.709 61.6483 69.1418 61.7877 68.5628 61.7999C68.0815 61.7976 67.6049 61.7051 67.1577 61.5271L36.7611 49.3785L33.3333 48.0085V51.7V64.35V64.35C33.3333 65.3394 32.9424 66.2887 32.2456 66.9911C31.5509 67.6915 30.6082 68.0898 29.6221 68.1H26.4926C25.7804 68.0938 25.0842 67.8876 24.4835 67.5049C23.8814 67.1212 23.3996 66.5757 23.0932 65.9309C23.0928 65.9301 23.0925 65.9293 23.0921 65.9286L15.5944 50.0334L14.918 48.5995L13.3326 48.6C12.3534 48.6002 11.413 48.2175 10.7123 47.5336C10.0178 46.8558 9.61335 45.9354 9.58331 44.9661V44.35V41.85H7.08331ZM71.0833 15.65V12.8829C71.4099 13.175 71.6837 13.5229 71.8913 13.9117C72.1782 14.4489 72.3298 15.0478 72.3333 15.6567V58.1595C72.3116 58.7437 72.1536 59.3148 71.8717 59.8273C71.6663 60.2008 71.3994 60.5353 71.0833 60.8175V58.05V15.65ZM77.4833 39.6451V34.0549C77.535 34.1011 77.5856 34.149 77.635 34.1983C78.3382 34.9016 78.7333 35.8554 78.7333 36.85C78.7333 37.8445 78.3382 38.7983 77.635 39.5016C77.5856 39.551 77.535 39.5988 77.4833 39.6451ZM32.0833 28.85V26.35H29.5833H13.3333H10.8333V28.85V45V47.5H13.3333H29.5833H32.0833V45V28.85ZM29.5833 66.85H32.0833V64.35V51.1V48.6H29.5833H20.2833H16.3668L18.0157 52.1525L24.1657 65.4025L24.8375 66.85H26.4333H29.5833Z" fill="url(#paint0_linear_118_162)" stroke="url(#paint1_linear_118_162)" stroke-width="5"/>
</g>
<defs>
<linearGradient id="paint0_linear_118_162" x1="81.2333" y1="40.0488" x2="0.833313" y2="40.0488" gradientUnits="userSpaceOnUse">
<stop stop-color="#13ADC7"/>
<stop offset="0.666667" stop-color="#6978D1"/>
<stop offset="1" stop-color="#945DD6"/>
</linearGradient>
<linearGradient id="paint1_linear_118_162" x1="81.2333" y1="40.0488" x2="0.833313" y2="40.0488" gradientUnits="userSpaceOnUse">
<stop stop-color="#13ADC7"/>
<stop offset="0.666667" stop-color="#6978D1"/>
<stop offset="1" stop-color="#945DD6"/>
</linearGradient>
<clipPath id="clip0_118_162">
<rect width="80" height="80" fill="white" transform="translate(0.833313)"/>
</clipPath>
</defs>
</svg>
