<svg width="81" height="80" viewBox="0 0 81 80" fill="none" xmlns="http://www.w3.org/2000/svg"><path fill-rule="evenodd" clip-rule="evenodd" d="M56.164 6v8a2 2 0 01-2 2h-28a2 2 0 01-2-2V6a2 2 0 012-2h28a2 2 0 012 2z" stroke="url(#paint0_linear_203_25)" stroke-width="5" stroke-linecap="round" stroke-linejoin="round"/><path d="M56.164 8h11.868a8 8 0 018 8v52a8 8 0 01-8 8H12.164a8 8 0 01-8-8V16a8 8 0 018-8h12" stroke="url(#paint1_linear_203_25)" stroke-width="5" stroke-linecap="round" stroke-linejoin="round"/><path d="M28.162 36h24" stroke="url(#paint2_linear_203_25)" stroke-width="5" stroke-linecap="round" stroke-linejoin="round"/><path d="M28.162 52h12" stroke="url(#paint3_linear_203_25)" stroke-width="5" stroke-linecap="round" stroke-linejoin="round"/><defs><linearGradient id="paint0_linear_203_25" x1="56.164" y1="10" x2="24.164" y2="10" gradientUnits="userSpaceOnUse"><stop stop-color="#13ADC7"/><stop offset=".667" stop-color="#6978D1"/><stop offset="1" stop-color="#945DD6"/></linearGradient><linearGradient id="paint1_linear_203_25" x1="76.032" y1="42" x2="4.164" y2="42" gradientUnits="userSpaceOnUse"><stop stop-color="#13ADC7"/><stop offset=".667" stop-color="#6978D1"/><stop offset="1" stop-color="#945DD6"/></linearGradient><linearGradient id="paint2_linear_203_25" x1="52.162" y1="36.5" x2="28.162" y2="36.5" gradientUnits="userSpaceOnUse"><stop stop-color="#13ADC7"/><stop offset=".667" stop-color="#6978D1"/><stop offset="1" stop-color="#945DD6"/></linearGradient><linearGradient id="paint3_linear_203_25" x1="40.162" y1="52.499" x2="28.162" y2="52.499" gradientUnits="userSpaceOnUse"><stop stop-color="#13ADC7"/><stop offset=".667" stop-color="#6978D1"/><stop offset="1" stop-color="#945DD6"/></linearGradient></defs></svg>