<svg width="81" height="80" viewBox="0 0 81 80" fill="none" xmlns="http://www.w3.org/2000/svg"><g clip-path="url(#clip0_118_162)"><path d="M7.083 41.85h-3.75v-10h6.25v-3a3.75 3.75 0 013.75-3.75h19.75s0 0 0 0a8.601 8.601 0 003.228-.629L67.15 12.326l.034-.013.032-.014a3.75 3.75 0 012.985.017l-2.541 1.011-30.89 12.296a8.789 8.789 0 01-1.44.428l-1.996.412v20.385l1.767.542c.498.153.982.349 1.446.586l.104.053.109.044 30.9 12.3 2.566 1.021a3.95 3.95 0 01-1.662.406 3.85 3.85 0 01-1.405-.273L36.76 49.38l-3.428-1.37v16.34a3.75 3.75 0 01-3.71 3.75h-3.13a3.8 3.8 0 01-3.4-2.17v-.001l-7.499-15.896-.676-1.434-1.585.001a3.75 3.75 0 01-3.75-3.634V41.85h-2.5zm64-26.2v-2.767a3.75 3.75 0 011.25 2.774v42.502a3.75 3.75 0 01-1.25 2.659V15.65zm6.4 23.995v-5.59a3.75 3.75 0 010 5.59zm-45.4-10.795v-2.5h-21.25V47.5h21.25V28.85zm-2.5 38h2.5V48.6H16.367l1.649 3.553 6.15 13.25.671 1.447h4.746z" fill="url(#paint0_linear_118_162)" stroke="url(#paint1_linear_118_162)" stroke-width="5"/></g><defs><linearGradient id="paint0_linear_118_162" x1="81.233" y1="40.049" x2=".833" y2="40.049" gradientUnits="userSpaceOnUse"><stop stop-color="#13ADC7"/><stop offset=".667" stop-color="#6978D1"/><stop offset="1" stop-color="#945DD6"/></linearGradient><linearGradient id="paint1_linear_118_162" x1="81.233" y1="40.049" x2=".833" y2="40.049" gradientUnits="userSpaceOnUse"><stop stop-color="#13ADC7"/><stop offset=".667" stop-color="#6978D1"/><stop offset="1" stop-color="#945DD6"/></linearGradient><clipPath id="clip0_118_162"><path fill="#fff" transform="translate(.833)" d="M0 0h80v80H0z"/></clipPath></defs></svg>