<svg width="81" height="80" viewBox="0 0 81 80" fill="none" xmlns="http://www.w3.org/2000/svg"><path d="M65.702 23.333c.763-4.349-2.584-8.333-7-8.333H22.29c-4.416 0-7.763 3.984-7 8.333" stroke="url(#paint0_linear_203_15)" stroke-width="5"/><path d="M58.833 15c.095-.864.142-1.295.143-1.652a6.666 6.666 0 00-5.956-6.643c-.354-.038-.789-.038-1.657-.038H29.637c-.87 0-1.304 0-1.658.038a6.667 6.667 0 00-5.956 6.643c.001.357.049.788.143 1.652" stroke="url(#paint1_linear_203_15)" stroke-width="5"/><path d="M49.104 45.386c1.861 1.154 1.861 4.141 0 5.295l-11.239 6.967c-1.809 1.122-4.032-.338-4.032-2.647V41.067c0-2.31 2.223-3.769 4.032-2.648l11.239 6.967z" stroke="url(#paint2_linear_203_15)" stroke-width="5"/><path d="M8.445 45.977c-1.487-10.546-2.23-15.818.93-19.231 3.159-3.413 8.784-3.413 20.033-3.413h22.184c11.25 0 16.874 0 20.034 3.413 3.159 3.413 2.416 8.685.929 19.23l-1.41 10c-1.166 8.27-1.749 12.405-4.74 14.881-2.99 2.476-7.401 2.476-16.223 2.476H30.818c-8.822 0-13.233 0-16.224-2.476-2.99-2.476-3.573-6.61-4.74-14.88l-1.409-10z" stroke="url(#paint3_linear_203_15)" stroke-width="5"/><defs><linearGradient id="paint0_linear_203_15" x1="65.811" y1="19.167" x2="15.181" y2="19.167" gradientUnits="userSpaceOnUse"><stop stop-color="#13ADC7"/><stop offset=".667" stop-color="#6978D1"/><stop offset="1" stop-color="#945DD6"/></linearGradient><linearGradient id="paint1_linear_203_15" x1="58.976" y1="10.833" x2="22.023" y2="10.833" gradientUnits="userSpaceOnUse"><stop stop-color="#13ADC7"/><stop offset=".667" stop-color="#6978D1"/><stop offset="1" stop-color="#945DD6"/></linearGradient><linearGradient id="paint2_linear_203_15" x1="50.5" y1="48.034" x2="33.833" y2="48.034" gradientUnits="userSpaceOnUse"><stop stop-color="#13ADC7"/><stop offset=".667" stop-color="#6978D1"/><stop offset="1" stop-color="#945DD6"/></linearGradient><linearGradient id="paint3_linear_203_15" x1="73.833" y1="48.333" x2="7.167" y2="48.333" gradientUnits="userSpaceOnUse"><stop stop-color="#13ADC7"/><stop offset=".667" stop-color="#6978D1"/><stop offset="1" stop-color="#945DD6"/></linearGradient></defs></svg>