<svg width="24" height="24" viewBox="0 0 24 24" fill="none" xmlns="http://www.w3.org/2000/svg"><path d="M19.62 4.51A17.443 17.443 0 0015.085 3c-.197.368-.428.871-.579 1.276a15.68 15.68 0 00-5.023 0A14.037 14.037 0 008.892 3a17.44 17.44 0 00-4.537 1.51C1.485 9.097.709 13.576 1.09 17.981 3 19.49 4.84 20.399 6.658 21c.451-.65.845-1.35 1.192-2.074a10.574 10.574 0 01-1.875-.969c.162-.123.312-.258.463-.38 3.623 1.791 7.546 1.791 11.123 0 .15.135.3.257.463.38-.59.38-1.227.7-1.875.97.347.723.74 1.423 1.192 2.073a17.68 17.68 0 005.567-3.018c.451-5.117-.776-9.546-3.264-13.473h-.023zM8.337 15.281c-1.088 0-1.98-1.067-1.98-2.38s.869-2.38 1.98-2.38 1.99 1.067 1.98 2.38c0 1.3-.869 2.38-1.98 2.38zm7.303 0c-1.088 0-1.979-1.067-1.979-2.38s.868-2.38 1.98-2.38c1.11 0 1.99 1.067 1.979 2.38 0 1.3-.869 2.38-1.98 2.38z" fill="#fff"/></svg>