<svg width="24" height="24" viewBox="0 0 24 24" fill="none" xmlns="http://www.w3.org/2000/svg"><path fill-rule="evenodd" clip-rule="evenodd" d="M23.472 6.016c.16-.586 0-1.016-.76-1.016h-2.517c-.64 0-.935.372-1.095.781 0 0-1.28 3.426-3.092 5.65-.586.644-.853.85-1.173.85-.16 0-.4-.206-.4-.791V6.016c0-.703-.177-1.016-.71-1.016H9.77c-.4 0-.64.326-.64.635 0 .666.906.82 1 2.693v4.07c0 .891-.147 1.053-.467 1.053-.853 0-2.928-3.44-4.159-7.377C5.264 5.31 5.022 5 4.38 5H1.863C1.143 5 1 5.372 1 5.781c0 .732.853 4.362 3.972 9.163C7.052 18.223 9.98 20 12.646 20c1.6 0 1.798-.395 1.798-1.075v-2.478c0-.79.151-.947.658-.947.373 0 1.013.205 2.506 1.786C19.314 19.16 19.595 20 20.555 20h2.516c.719 0 1.078-.395.87-1.174-.226-.776-1.04-1.902-2.121-3.238-.587-.761-1.467-1.58-1.733-1.99-.373-.527-.267-.762 0-1.23 0 0 3.065-4.742 3.385-6.352z" fill="#fff"/></svg>