<svg width="24" height="24" viewBox="0 0 24 24" fill="none" xmlns="http://www.w3.org/2000/svg"><path d="M12 3c-4.98 0-9 3.769-9 8.438 0 1.912.66 3.712 1.92 5.175l-1.26 3.6c-.06.224 0 .45.18.618.06.113.24.169.36.169.06 0 .18 0 .24-.056L8.58 19.2c1.08.45 2.22.675 3.42.675 4.98 0 9-3.769 9-8.438C21 6.77 16.98 3 12 3zm5.22 11.531c-.24.675-1.14 1.238-1.92 1.35-.18.056-.36.056-.6.056-.48 0-1.2-.112-2.46-.618-1.44-.563-2.88-1.744-4.02-3.263V12c-.36-.506-1.02-1.463-1.02-2.475 0-1.238.66-1.856.9-2.138.3-.28.72-.45 1.2-.45h.3c.42 0 .72.113 1.02.675l.24.45c.18.45.42.957.48 1.013.18.338.18.619 0 .9-.06.169-.18.281-.3.394-.06.112-.12.168-.18.168l-.12.113c.18.281.54.787 1.02 1.181.72.619 1.26.788 1.56.9.12-.112.24-.337.42-.506l.06-.112c.3-.394.78-.507 1.26-.338.24.112 1.56.675 1.56.675l.12.056c.18.113.42.169.54.394.24.506.06 1.237-.06 1.631z" fill="#fff"/></svg>