<svg width="24" height="24" viewBox="0 0 24 24" fill="none" xmlns="http://www.w3.org/2000/svg">
<path d="M19.6209 4.5092C18.1972 3.80981 16.681 3.29448 15.0838 3C14.887 3.3681 14.6556 3.87116 14.5051 4.27607C12.8153 4.00613 11.137 4.00613 9.48193 4.27607C9.31989 3.87116 9.08841 3.3681 8.89165 3C7.29442 3.29448 5.77821 3.80981 4.3546 4.5092C1.48421 9.09815 0.708747 13.5767 1.09069 17.9816C3.00042 19.4908 4.84071 20.3988 6.65785 21C7.10924 20.3497 7.50276 19.6503 7.84998 18.9264C7.19026 18.6687 6.56525 18.3374 5.97497 17.9571C6.13701 17.8344 6.28747 17.6994 6.43794 17.5767C10.0606 19.3681 13.9843 19.3681 17.5607 17.5767C17.7111 17.7117 17.8616 17.8344 18.0236 17.9571C17.4333 18.3374 16.7968 18.6564 16.1486 18.9264C16.4958 19.6503 16.8894 20.3497 17.3408 21C19.1579 20.3988 21.0097 19.4908 22.9079 17.9816C23.3593 12.865 22.1324 8.43557 19.644 4.5092H19.6209ZM8.33609 15.2822C7.24813 15.2822 6.35692 14.2147 6.35692 12.9019C6.35692 11.589 7.22498 10.5215 8.33609 10.5215C9.44721 10.5215 10.3268 11.589 10.3153 12.9019C10.3153 14.2025 9.44721 15.2822 8.33609 15.2822ZM15.6394 15.2822C14.5514 15.2822 13.6602 14.2147 13.6602 12.9019C13.6602 11.589 14.5282 10.5215 15.6394 10.5215C16.7505 10.5215 17.6301 11.589 17.6185 12.9019C17.6185 14.2025 16.7505 15.2822 15.6394 15.2822Z" fill="white"/>
</svg>
