<svg width="24" height="24" viewBox="0 0 24 24" fill="none" xmlns="http://www.w3.org/2000/svg">
<path fill-rule="evenodd" clip-rule="evenodd" d="M22 20H18V13.001C18 11.081 17.153 10.0098 15.634 10.0098C13.981 10.0098 13 11.126 13 13.001V20H9V7H13V8.46191C13 8.46191 14.255 6.25977 17.083 6.25977C19.912 6.25977 22 7.98611 22 11.5581V20ZM4.442 4.9209C3.093 4.9209 2 3.81896 2 2.45996C2 1.10196 3.093 0 4.442 0C5.79 0 6.883 1.10196 6.883 2.45996C6.884 3.81896 5.79 4.9209 4.442 4.9209ZM2 20H7V7H2V20Z" fill="white"/>
</svg>
