<svg width="24" height="24" viewBox="0 0 24 24" fill="none" xmlns="http://www.w3.org/2000/svg">
<path d="M20.2949 3.15891C20.2949 3.15891 22.1451 2.37977 21.9909 4.27197C21.9395 5.05112 21.477 7.77812 21.1172 10.7278L19.8838 19.4653C19.8838 19.4653 19.781 20.7453 18.8559 20.9679C17.9308 21.1905 16.5432 20.1888 16.2862 19.9662C16.0807 19.7992 12.4318 17.2948 11.147 16.0705C10.7872 15.7365 10.3761 15.0687 11.1983 14.2895L16.5946 8.72425C17.2113 8.0564 17.8281 6.49812 15.2584 8.39033L8.06339 13.6774C8.06339 13.6774 7.2411 14.2339 5.69934 13.733L2.35877 12.62C2.35877 12.62 1.12534 11.7852 3.23245 10.9503C8.37177 8.33463 14.6931 5.66328 20.2949 3.15891Z" fill="white"/>
</svg>
