<svg width="24" height="24" viewBox="0 0 24 24" fill="none" xmlns="http://www.w3.org/2000/svg">
<path fill-rule="evenodd" clip-rule="evenodd" d="M23.4723 6.0157C23.6321 5.43022 23.4723 5 22.7114 5H20.1952C19.5554 5 19.2604 5.37165 19.1004 5.78146C19.1004 5.78146 17.8208 9.2065 16.0081 11.4312C15.4217 12.0753 15.1551 12.2802 14.8352 12.2802C14.6752 12.2802 14.4353 12.0753 14.4353 11.4899V6.0157C14.4353 5.31312 14.2581 5 13.7249 5H9.7708C9.37099 5 9.13054 5.32608 9.13054 5.63512C9.13054 6.30115 10.0368 6.45475 10.1303 8.3283V12.3974C10.1303 13.2894 9.98355 13.4512 9.66365 13.4512C8.81065 13.4512 6.7357 10.0109 5.50506 6.07423C5.26389 5.30908 5.022 5 4.37892 5H1.86271C1.14379 5 1 5.37165 1 5.78146C1 6.51333 1.85305 10.1433 4.97195 14.9441C7.0512 18.2227 9.98072 20 12.6464 20C14.2459 20 14.4438 19.6053 14.4438 18.9254V16.4474C14.4438 15.6579 14.5953 15.5003 15.1018 15.5003C15.475 15.5003 16.1148 15.7053 17.6076 17.2861C19.3137 19.1596 19.5949 20 20.5545 20H23.0708C23.7897 20 24.1491 19.6053 23.9418 18.8262C23.7148 18.0499 22.9003 16.9235 21.8195 15.5882C21.233 14.827 20.3533 14.0074 20.0867 13.5975C19.7135 13.0706 19.8202 12.8364 20.0867 12.3681C20.0867 12.3681 23.1524 7.62572 23.4723 6.0157Z" fill="white"/>
</svg>
