<svg width="24" height="24" viewBox="0 0 24 24" fill="none" xmlns="http://www.w3.org/2000/svg">
<path d="M12 3C7.02 3 3 6.76875 3 11.4375C3 13.35 3.66 15.15 4.92 16.6125L3.66 20.2125C3.6 20.4375 3.66 20.6625 3.84 20.8313C3.9 20.9438 4.08 21 4.2 21C4.26 21 4.38 21 4.44 20.9438L8.58 19.2C9.66 19.65 10.8 19.875 12 19.875C16.98 19.875 21 16.1062 21 11.4375C21 6.76875 16.98 3 12 3ZM17.22 14.5312C16.98 15.2063 16.08 15.7688 15.3 15.8812C15.12 15.9375 14.94 15.9375 14.7 15.9375C14.22 15.9375 13.5 15.825 12.24 15.3187C10.8 14.7562 9.36 13.575 8.22 12.0563V12C7.86 11.4937 7.2 10.5375 7.2 9.525C7.2 8.2875 7.86 7.66875 8.1 7.3875C8.4 7.10625 8.82 6.9375 9.3 6.9375C9.42 6.9375 9.48 6.9375 9.6 6.9375C10.02 6.9375 10.32 7.05 10.62 7.6125L10.86 8.0625C11.04 8.5125 11.28 9.01875 11.34 9.075C11.52 9.4125 11.52 9.69375 11.34 9.975C11.28 10.1437 11.16 10.2563 11.04 10.3688C10.98 10.4813 10.92 10.5375 10.86 10.5375C10.8 10.5938 10.8 10.5938 10.74 10.65C10.92 10.9313 11.28 11.4375 11.76 11.8313C12.48 12.45 13.02 12.6187 13.32 12.7312C13.44 12.6187 13.56 12.3938 13.74 12.225L13.8 12.1125C14.1 11.7188 14.58 11.6062 15.06 11.775C15.3 11.8875 16.62 12.45 16.62 12.45L16.74 12.5062C16.92 12.6187 17.16 12.675 17.28 12.9C17.52 13.4062 17.34 14.1375 17.22 14.5312Z" fill="white"/>
</svg>
