<svg width="86" height="20" viewBox="0 0 86 20" fill="none" xmlns="http://www.w3.org/2000/svg"><path d="M1.024 19.933a.65.65 0 01-.48-.199.694.694 0 01-.197-.51v-1.987c0-.284.056-.511.169-.681a9.23 9.23 0 01.254-.37l9.818-12.77H1.306a.685.685 0 01-.508-.199.719.719 0 01-.17-.482V.777a.76.76 0 01.17-.511.685.685 0 01.508-.199H14.79c.207 0 .377.067.508.199a.694.694 0 01.198.51v1.959c0 .227-.038.416-.113.568-.075.15-.16.293-.254.425L5.51 16.556h9.592c.207 0 .376.066.507.198a.694.694 0 01.198.511v1.987c0 .189-.066.35-.198.482a.685.685 0 01-.507.199H1.024zm18.733 0a.65.65 0 01-.48-.199.659.659 0 01-.198-.482V.777c0-.208.066-.379.198-.511a.651.651 0 01.48-.199H32.17c.207 0 .376.067.508.199a.694.694 0 01.197.51V2.65a.66.66 0 01-.197.482.685.685 0 01-.508.199h-9.282v5.023h8.661c.207 0 .377.066.508.199.132.113.198.274.198.482v1.76a.693.693 0 01-.198.51.75.75 0 01-.508.17h-8.66v5.194h9.507c.207 0 .376.066.508.199a.694.694 0 01.197.51v1.874a.66.66 0 01-.197.482.685.685 0 01-.508.199h-12.64zm21.894 0a.651.651 0 01-.48-.199.659.659 0 01-.197-.482V3.558h-5.22a.65.65 0 01-.479-.199.659.659 0 01-.197-.482v-2.1c0-.208.066-.379.197-.511a.65.65 0 01.48-.199h14.388c.207 0 .376.067.508.199a.694.694 0 01.197.51v2.1c0 .19-.065.35-.197.483a.685.685 0 01-.508.199h-5.191v15.694a.66.66 0 01-.197.482.685.685 0 01-.508.199H41.65zm17.082 0a.65.65 0 01-.48-.199.658.658 0 01-.197-.482V3.558h-5.22a.65.65 0 01-.48-.199.659.659 0 01-.197-.482v-2.1c0-.208.066-.379.198-.511a.65.65 0 01.48-.199h14.388c.207 0 .376.067.508.199a.694.694 0 01.197.51v2.1c0 .19-.066.35-.198.483a.685.685 0 01-.507.199h-5.191v15.694c0 .189-.066.35-.198.482a.685.685 0 01-.508.199h-2.595zm8.78 0a.638.638 0 01-.423-.17.58.58 0 01-.17-.426.7.7 0 01.057-.256l6.8-18.304c.056-.19.16-.35.31-.483.169-.151.395-.227.677-.227h3.075c.282 0 .498.076.649.227.15.133.263.294.338.483l6.8 18.304c.018.095.028.18.028.256a.58.58 0 01-.17.425.54.54 0 01-.395.17h-2.454c-.263 0-.46-.056-.593-.17a1.148 1.148 0 01-.225-.369l-1.326-3.462h-8.38l-1.325 3.463a1.002 1.002 0 01-.254.368c-.113.114-.301.17-.564.17h-2.455zm5.586-7.265h6.404l-3.216-8.77-3.188 8.77z" fill="#fff"/></svg>